#Comment line ignore any data following # character 
#Hierarchical Translation and Rotation (.htr) file 
[Header]	
#Header keywords are followed by a single value 
FileType HTR		#Single word string
DataType HTRS		#Translation followed by rotation and scale data
FileVersion 1		#integer
NumSegments 64		#integer
NumFrames 3		#integer
DataFrameRate 30		#integer, data frame rate in this file
EulerRotationOrder ZYX
CalibrationUnits mm
RotationUnits Degrees
GlobalAxisofGravity Y
BoneLengthAxis Y
ScaleFactor 1.00
[SegmentNames&Hierarchy]
#CHILD	PARENT
Pinger_Root GLOBAL
Pelvis Pinger_Root
L_Hip Pelvis
R_Hip Pelvis
Rear_Leg01 Pelvis
Spine1 Pelvis
L_Leg01 L_Hip
L_Leg02 L_Leg01
L_Leg03 L_Leg02
L_Foot L_Leg03
L_Toe1_01 L_Foot
L_Toe2_01 L_Foot
L_Toe3_01 L_Foot
planeAlignerLeft L_Foot
L_Toe1_02 L_Toe1_01
L_Toe1_03 L_Toe1_02
L_Toe2_02 L_Toe2_01
L_Toe2_03 L_Toe2_02
L_Toe3_02 L_Toe3_01
L_Toe3_03 L_Toe3_02
planeLockWeightLeft planeAlignerLeft
R_Leg01 R_Hip
R_Leg02 R_Leg01
R_Leg03 R_Leg02
R_Foot R_Leg03
planeAlignerRight R_Foot
R_Toe1_01 R_Foot
R_Toe2_01 R_Foot
R_Toe3_01 R_Foot
planeLockWeightRight planeAlignerRight
R_Toe1_02 R_Toe1_01
R_Toe1_03 R_Toe1_02
R_Toe2_02 R_Toe2_01
R_Toe2_03 R_Toe2_02
R_Toe3_02 R_Toe3_01
R_Toe3_03 R_Toe3_02
Rear_Leg02 Rear_Leg01
Rear_Leg03 Rear_Leg02
Rear_Leg04 Rear_Leg03
Rear_Foot Rear_Leg04
planeAlignerCenter Rear_Foot
Rear_Toe1_01 Rear_Foot
Rear_Toe2_01 Rear_Foot
Rear_Toe3_01 Rear_Foot
planeLockWeightCenter planeAlignerCenter
Rear_Toe1_02 Rear_Toe1_01
Rear_Toe1_03 Rear_Toe1_02
Rear_Toe2_02 Rear_Toe2_01
Rear_Toe2_03 Rear_Toe2_02
Rear_Toe3_02 Rear_Toe3_01
Rear_Toe3_03 Rear_Toe3_02
Back_Bone Spine1
Head Spine1
Motor_Bone Back_Bone
Ping_Mechanism Back_Bone
BN_LookIK Head
bottomMouth Head
L_Mouth01 Head
L_mouthFront Head
mouthGun Head
R_Mouth01 Head
R_mouthFront Head
TopMouth Head
weapon_bone Head
[BasePosition]
#SegmentName Tx, Ty, Tz, Rx, Ry, Rz, BoneLength
Pinger_Root 0.000000 0.000000 0.000000 -90.000000 0.000000 0.000000 10.000000 
Pelvis 0.000000 0.000000 0.000000 0.000000 0.000000 0.000000 10.000000 
L_Hip 0.000000 0.000000 0.000000 0.000000 0.000000 0.000000 10.000000 
R_Hip 0.000000 0.000000 0.000000 0.000000 0.000000 0.000000 10.000000 
Rear_Leg01 0.000000 0.000000 0.000000 0.000000 0.000000 0.000000 10.000000 
Spine1 0.000000 0.000000 0.000000 0.000000 0.000000 0.000000 10.000000 
L_Leg01 0.000000 0.000000 0.000000 0.000000 0.000000 0.000000 10.000000 
L_Leg02 0.000000 0.000000 0.000000 0.000000 0.000000 0.000000 10.000000 
L_Leg03 0.000000 0.000000 0.000000 0.000000 0.000000 0.000000 10.000000 
L_Foot 0.000000 0.000000 0.000000 0.000000 0.000000 0.000000 10.000000 
L_Toe1_01 0.000000 0.000000 0.000000 0.000000 0.000000 0.000000 10.000000 
L_Toe2_01 0.000000 0.000000 0.000000 0.000000 0.000000 0.000000 10.000000 
L_Toe3_01 0.000000 0.000000 0.000000 0.000000 0.000000 0.000000 10.000000 
planeAlignerLeft 0.000000 0.000000 0.000000 0.000000 0.000000 0.000000 10.000000 
L_Toe1_02 0.000000 0.000000 0.000000 0.000000 0.000000 0.000000 10.000000 
L_Toe1_03 0.000000 0.000000 0.000000 0.000000 0.000000 0.000000 10.000000 
L_Toe2_02 0.000000 0.000000 0.000000 0.000000 0.000000 0.000000 10.000000 
L_Toe2_03 0.000000 0.000000 0.000000 0.000000 0.000000 0.000000 10.000000 
L_Toe3_02 0.000000 0.000000 0.000000 0.000000 0.000000 0.000000 10.000000 
L_Toe3_03 0.000000 0.000000 0.000000 0.000000 0.000000 0.000000 10.000000 
planeLockWeightLeft 0.000000 0.000000 0.000000 0.000000 0.000000 0.000000 10.000000 
R_Leg01 0.000000 0.000000 0.000000 0.000000 0.000000 0.000000 10.000000 
R_Leg02 0.000000 0.000000 0.000000 0.000000 0.000000 0.000000 10.000000 
R_Leg03 0.000000 0.000000 0.000000 0.000000 0.000000 0.000000 10.000000 
R_Foot 0.000000 0.000000 0.000000 0.000000 0.000000 0.000000 10.000000 
planeAlignerRight 0.000000 0.000000 0.000000 0.000000 0.000000 0.000000 10.000000 
R_Toe1_01 0.000000 0.000000 0.000000 0.000000 0.000000 0.000000 10.000000 
R_Toe2_01 0.000000 0.000000 0.000000 0.000000 0.000000 0.000000 10.000000 
R_Toe3_01 0.000000 0.000000 0.000000 0.000000 0.000000 0.000000 10.000000 
planeLockWeightRight 0.000000 0.000000 0.000000 0.000000 0.000000 0.000000 10.000000 
R_Toe1_02 0.000000 0.000000 0.000000 0.000000 0.000000 0.000000 10.000000 
R_Toe1_03 0.000000 0.000000 0.000000 0.000000 0.000000 0.000000 10.000000 
R_Toe2_02 0.000000 0.000000 0.000000 0.000000 0.000000 0.000000 10.000000 
R_Toe2_03 0.000000 0.000000 0.000000 0.000000 0.000000 0.000000 10.000000 
R_Toe3_02 0.000000 0.000000 0.000000 0.000000 0.000000 0.000000 10.000000 
R_Toe3_03 0.000000 0.000000 0.000000 0.000000 0.000000 0.000000 10.000000 
Rear_Leg02 0.000000 0.000000 0.000000 0.000000 0.000000 0.000000 10.000000 
Rear_Leg03 0.000000 0.000000 0.000000 0.000000 0.000000 0.000000 10.000000 
Rear_Leg04 0.000000 0.000000 0.000000 0.000000 0.000000 0.000000 10.000000 
Rear_Foot 0.000000 0.000000 0.000000 0.000000 0.000000 0.000000 10.000000 
planeAlignerCenter 0.000000 0.000000 0.000000 0.000000 0.000000 0.000000 10.000000 
Rear_Toe1_01 0.000000 0.000000 0.000000 0.000000 0.000000 0.000000 10.000000 
Rear_Toe2_01 0.000000 0.000000 0.000000 0.000000 0.000000 0.000000 10.000000 
Rear_Toe3_01 0.000000 0.000000 0.000000 0.000000 0.000000 0.000000 10.000000 
planeLockWeightCenter 0.000000 0.000000 0.000000 0.000000 0.000000 0.000000 10.000000 
Rear_Toe1_02 0.000000 0.000000 0.000000 0.000000 0.000000 0.000000 10.000000 
Rear_Toe1_03 0.000000 0.000000 0.000000 0.000000 0.000000 0.000000 10.000000 
Rear_Toe2_02 0.000000 0.000000 0.000000 0.000000 0.000000 0.000000 10.000000 
Rear_Toe2_03 0.000000 0.000000 0.000000 0.000000 0.000000 0.000000 10.000000 
Rear_Toe3_02 0.000000 0.000000 0.000000 0.000000 0.000000 0.000000 10.000000 
Rear_Toe3_03 0.000000 0.000000 0.000000 0.000000 0.000000 0.000000 10.000000 
Back_Bone 0.000000 0.000000 0.000000 0.000000 0.000000 0.000000 10.000000 
Head 0.000000 0.000000 0.000000 0.000000 0.000000 0.000000 10.000000 
Motor_Bone 0.000000 0.000000 0.000000 0.000000 0.000000 0.000000 10.000000 
Ping_Mechanism 0.000000 0.000000 0.000000 0.000000 0.000000 0.000000 10.000000 
BN_LookIK 0.000000 0.000000 0.000000 0.000000 0.000000 0.000000 10.000000 
bottomMouth 0.000000 0.000000 0.000000 0.000000 0.000000 0.000000 10.000000 
L_Mouth01 0.000000 0.000000 0.000000 0.000000 0.000000 0.000000 10.000000 
L_mouthFront 0.000000 0.000000 0.000000 0.000000 0.000000 0.000000 10.000000 
mouthGun 0.000000 0.000000 0.000000 0.000000 0.000000 0.000000 10.000000 
R_Mouth01 0.000000 0.000000 0.000000 0.000000 0.000000 0.000000 10.000000 
R_mouthFront 0.000000 0.000000 0.000000 0.000000 0.000000 0.000000 10.000000 
TopMouth 0.000000 0.000000 0.000000 0.000000 0.000000 0.000000 10.000000 
weapon_bone 0.000000 0.000000 0.000000 0.000000 0.000000 0.000000 10.000000 
#Beginning of Data. Separated by tabs
#Fr	Tx	Ty	Tz	Rx	Ry	Rz	SF
[Pinger_Root]
4 0.000000 0.000000 0.000000 -0.000075 -0.000000 -0.000020 0.000000
5 0.000000 0.000000 0.000000 -0.000075 -0.000000 -0.000020 0.000000
6 0.000000 0.000000 0.000000 -0.000075 -0.000000 -0.000020 0.000000
[Pelvis]
4 10.393624 1778.765503 4852.027344 -109.418732 -79.714554 103.331985 5167.812500
5 -17.010824 1886.678101 4848.277832 -109.042534 -78.403290 101.695595 5202.465332
6 -39.221397 1927.641479 4842.029785 -108.601387 -77.859047 98.460815 5211.774414
[L_Hip]
4 5.766392 125.831482 872.656799 160.158691 -45.484905 122.312202 881.701050
5 5.766392 125.831482 872.656799 160.158691 -45.484905 122.312202 881.701050
6 5.766392 125.831482 872.656799 160.158691 -45.484905 122.312202 881.701050
[R_Hip]
4 5.765438 125.836372 -872.654907 38.087841 49.812687 125.703735 881.699829
5 5.765438 125.836372 -872.654907 38.087841 49.812687 125.703735 881.699829
6 5.765438 125.836372 -872.654907 38.087841 49.812687 125.703735 881.699829
[Rear_Leg01]
4 -192.298416 -925.602966 -0.001907 170.576920 2.271767 -148.104782 945.367432
5 -192.298416 -925.602966 -0.001907 169.867737 3.575308 -148.791336 945.367432
6 -192.298416 -925.602966 -0.001907 168.291458 6.295449 -149.541550 945.367432
[Spine1]
4 290.604584 5.007505 0.000477 19.416649 -0.280413 14.933618 290.647736
5 290.604584 5.007505 0.000477 19.189810 -2.192032 17.111952 290.647736
6 290.604584 5.007505 0.000477 18.201485 -4.598778 19.464905 290.647736
[L_Leg01]
4 761.932007 -0.002384 -0.069261 34.715710 5.478955 -44.103825 761.932068
5 761.932007 -0.002384 -0.069261 37.363487 6.837869 -42.166965 761.932068
6 761.932007 -0.002384 -0.069261 39.320728 7.422914 -39.269482 761.932068
[L_Leg02]
4 1441.140503 -0.000954 -0.000715 0.913231 -0.234760 -68.962708 1441.140503
5 1441.140503 -0.000954 -0.000715 0.222511 -0.195826 -65.667023 1441.140503
6 1441.140503 -0.000954 -0.000715 -0.595543 -0.061299 -66.156303 1441.140503
[L_Leg03]
4 1686.963989 -0.000715 -0.000954 -0.034088 0.012450 119.053535 1686.963989
5 1686.963989 -0.000715 -0.000954 -0.024165 0.009248 116.334763 1686.963989
6 1686.963989 -0.000715 -0.000954 -0.014100 0.006520 113.615982 1686.963989
[L_Foot]
4 3041.570068 -30.715107 11.297464 -3.111191 20.505043 40.503895 3041.746094
5 3041.570068 -30.715107 11.297464 -6.014297 24.407990 38.865177 3041.746094
6 3041.570068 -30.715107 11.297464 -9.463871 28.458170 38.000259 3041.746094
[L_Toe1_01]
4 -188.216690 -224.732346 -21.137953 93.925812 -7.254788 -174.993698 293.899567
5 -188.216690 -224.732346 -21.137953 94.017723 -6.757986 -176.765320 293.899567
6 -188.216690 -224.732346 -21.137953 93.834816 -6.422134 -175.891891 293.899567
[L_Toe2_01]
4 200.746536 -219.926590 148.838394 -90.316650 -31.757402 -49.991669 332.896027
5 200.746536 -219.926590 148.838394 -92.770561 -31.559870 -44.741901 332.896027
6 200.746536 -219.926590 148.838394 -95.222107 -30.884497 -39.771828 332.896027
[L_Toe3_01]
4 188.832520 -219.859131 -191.078659 -98.735329 15.583018 -66.846642 347.140900
5 188.832520 -219.859131 -191.078659 -98.434120 18.223059 -63.125156 347.140900
6 188.832520 -219.859131 -191.078659 -98.344162 21.693142 -61.050335 347.140900
[planeAlignerLeft]
4 0.812531 -811.448792 -0.314951 0.000000 -90.000000 -90.001900 811.449280
5 0.812531 -811.448792 -0.314951 0.000000 -90.000000 -90.001900 811.449280
6 0.812531 -811.448792 -0.314951 0.000000 -90.000000 -90.001900 811.449280
[L_Toe1_02]
4 413.761139 0.000477 0.000000 0.001661 0.070897 0.001661 413.761139
5 413.761139 0.000477 0.000000 0.001661 0.070897 0.001661 413.761139
6 413.761139 0.000477 0.000000 0.001576 -6.262698 0.001576 413.761139
[L_Toe1_03]
4 464.317322 0.000358 -0.000089 0.001673 -0.448396 -0.003292 464.317322
5 464.317322 0.000358 -0.000089 0.001673 -0.448396 -0.003292 464.317322
6 464.317322 0.000358 -0.000089 0.001493 6.043146 -0.003211 464.317322
[L_Toe2_02]
4 342.235809 -0.000477 0.000238 0.001179 -78.972626 0.001179 342.235809
5 342.235809 -0.000477 0.000238 0.002934 -79.839951 0.002934 342.235809
6 342.235809 -0.000477 0.000238 0.004686 -80.707283 0.004686 342.235809
[L_Toe2_03]
4 420.210846 -0.000715 0.000000 -179.998245 71.245895 -179.994705 420.210846
5 420.210846 -0.000715 0.000000 -179.999084 65.558533 -179.995499 420.210846
6 420.210846 -0.000715 0.000000 179.992081 58.177040 179.999344 420.210846
[L_Toe3_02]
4 329.270111 0.000954 0.000000 0.004676 -84.099174 0.004676 329.270111
5 329.270111 0.000954 0.000000 0.004676 -84.372948 0.004676 329.270111
6 329.270111 0.000954 0.000000 0.004675 -84.646469 0.004675 329.270111
[L_Toe3_03]
4 439.137451 -0.001907 0.000954 179.992157 57.651375 179.999435 439.137451
5 439.137451 -0.001907 0.000954 179.992584 53.253956 179.999969 439.137451
6 439.137451 -0.001907 0.000954 179.992889 49.352936 -179.999649 439.137451
[planeLockWeightLeft]
4 -0.000954 0.000238 -0.000305 -0.011826 -0.004376 0.005620 0.001029
5 -0.000954 0.000238 -0.000305 -0.011826 -0.004376 0.005620 0.001029
6 -0.000954 0.000238 -0.000305 -0.011826 -0.004376 0.005620 0.001029
[R_Leg01]
4 761.455627 -0.001907 -0.000358 141.903839 15.069701 56.340675 761.455688
5 761.455627 -0.001907 -0.000358 146.225357 15.619368 59.154297 761.455688
6 761.455627 -0.001907 -0.000358 147.136139 14.483825 59.470856 761.455688
[R_Leg02]
4 1441.140625 0.000000 -0.000238 0.433816 0.107007 -66.049576 1441.140625
5 1441.140625 0.000000 -0.000238 0.589998 0.084874 -58.853939 1441.140625
6 1441.140625 0.000000 -0.000238 0.618455 0.081675 -55.552849 1441.140625
[R_Leg03]
4 1686.963989 0.000954 0.001431 0.018561 -0.007808 115.631592 1686.963989
5 1686.963989 0.000954 0.001431 0.011861 -0.006028 113.403091 1686.963989
6 1686.963989 0.000954 0.001431 0.009160 -0.001827 112.560806 1686.963989
[R_Foot]
4 3041.560059 -30.531288 -11.204481 2.534348 -8.534859 52.994400 3041.734131
5 3041.560059 -30.531288 -11.204481 3.454245 -4.037607 51.846169 3041.734131
6 3041.560059 -30.531288 -11.204481 3.474982 -0.495173 50.361221 3041.734131
[planeAlignerRight]
4 -0.635147 -812.270569 -0.364304 0.000000 -89.960434 -90.005180 812.270874
5 -0.635147 -812.270569 -0.364304 0.000000 -89.960434 -90.005180 812.270874
6 -0.635147 -812.270569 -0.364304 0.000000 -89.960434 -90.005180 812.270874
[R_Toe1_01]
4 -188.383347 -224.864899 21.052242 77.068993 1.080542 -173.891937 294.101532
5 -188.383347 -224.864899 21.052242 77.223267 1.408817 -173.875122 294.101532
6 -188.383347 -224.864899 21.052242 77.316124 1.810472 -172.996765 294.101532
[R_Toe2_01]
4 200.637817 -220.002121 -148.787384 -89.328728 37.667000 -52.520473 332.857574
5 200.637817 -220.002121 -148.787384 -88.039215 39.029045 -49.793053 332.857574
6 200.637817 -220.002121 -148.787384 -87.511299 39.939484 -48.645226 332.857574
[R_Toe3_01]
4 188.606735 -220.092957 191.126343 -73.793190 -11.822127 -67.561539 347.192566
5 188.606735 -220.092957 191.126343 -74.050819 -13.126867 -65.413017 347.192566
6 188.606735 -220.092957 191.126343 -74.271988 -13.878573 -64.696869 347.192566
[planeLockWeightRight]
4 -0.000477 0.000000 0.000000 -0.011823 -0.004379 -0.000027 0.000477
5 -0.000477 0.000000 0.000000 -0.011823 -0.004379 -0.000027 0.000477
6 -0.000477 0.000000 0.000000 -0.011823 -0.004379 -0.000027 0.000477
[R_Toe1_02]
4 413.762085 0.000477 -0.000119 0.001385 -25.919882 0.001385 413.762085
5 413.762085 0.000477 -0.000119 0.001384 -25.926647 0.001384 413.762085
6 413.762085 0.000477 -0.000119 0.001388 -25.470106 0.001388 413.762085
[R_Toe1_03]
4 464.317810 0.000000 0.001088 0.003965 55.567322 0.003965 464.317810
5 464.317810 0.000000 0.001088 0.003448 50.203457 0.003448 464.317810
6 464.317810 0.000000 0.001088 0.001718 43.962963 -0.000184 464.317810
[R_Toe2_02]
4 342.234741 -0.000954 0.000238 -0.002342 -75.610016 -0.002342 342.234741
5 342.234741 -0.000954 0.000238 -0.002338 -77.063156 -0.002338 342.234741
6 342.234741 -0.000954 0.000238 -0.002336 -77.836548 -0.002336 342.234741
[R_Toe2_03]
4 420.210846 0.000715 -0.000268 -179.985352 84.892014 -179.988861 420.210846
5 420.210846 0.000715 -0.000268 -179.992020 79.419777 -179.995529 420.210846
6 420.210846 0.000715 -0.000268 -179.993515 76.021698 -179.997040 420.210846
[R_Toe3_02]
4 329.270355 -0.000477 -0.000954 0.001177 -81.887123 0.001177 329.270355
5 329.270355 -0.000477 -0.000954 0.001176 -82.985184 0.001176 329.270355
6 329.270355 -0.000477 -0.000954 0.001176 -83.389244 0.001176 329.270355
[R_Toe3_03]
4 439.137939 0.000238 0.001431 -179.998032 72.350967 -179.994492 439.137939
5 439.137939 0.000238 0.001431 -179.998978 66.313095 -179.995422 439.137939
6 439.137939 0.000238 0.001431 -179.999344 62.866871 -179.995758 439.137939
[Rear_Leg02]
4 1162.777710 -0.029802 0.005960 2.110543 0.632312 -22.187111 1162.777710
5 1162.777710 -0.029802 0.005960 5.432557 0.638488 -11.081375 1162.777710
6 1162.777710 -0.029802 0.005960 8.864491 0.578434 -7.941539 1162.777710
[Rear_Leg03]
4 607.192505 -0.013351 -0.073195 -0.001997 0.007101 21.477715 607.192505
5 607.192505 -0.013351 -0.073195 -0.007527 0.007397 11.509831 607.192505
6 607.192505 -0.013351 -0.073195 -0.007820 0.007086 6.870388 607.192505
[Rear_Leg04]
4 995.874512 -0.020504 -0.011921 -0.018112 -0.003330 -0.285188 995.874573
5 995.874512 -0.020504 -0.011921 -0.018167 0.001039 -3.921034 995.874573
6 995.874512 -0.020504 -0.011921 -0.018155 0.001251 -2.582855 995.874573
[Rear_Foot]
4 3096.176270 -0.067472 -0.041425 88.980972 88.194954 -60.276207 3096.176270
5 3096.176270 -0.067472 -0.041425 59.487137 84.794670 -86.424934 3096.176270
6 3096.176270 -0.067472 -0.041425 52.199921 80.799187 -93.161247 3096.176270
[planeAlignerCenter]
4 0.350077 0.966311 -838.790894 0.000009 0.000003 -179.999985 838.791565
5 0.350077 0.966311 -838.790894 0.000009 0.000003 -179.999985 838.791565
6 0.350077 0.966311 -838.790894 0.000009 0.000003 -179.999985 838.791565
[Rear_Toe1_01]
4 0.653352 83.966492 -371.173737 -4.357769 25.931578 88.897987 380.553192
5 0.653352 83.966492 -371.173737 -9.117431 30.962818 87.620842 380.553192
6 0.653352 83.966492 -371.173737 -14.673946 33.713657 86.190956 380.553192
[Rear_Toe2_01]
4 178.200760 -294.826019 -362.060547 -8.318698 21.623943 -67.512222 499.765686
5 178.200760 -294.826019 -362.060547 -7.895145 24.821976 -66.048141 499.765686
6 178.200760 -294.826019 -362.060547 -7.516163 26.261154 -64.707115 499.765686
[Rear_Toe3_01]
4 -153.359680 -308.780914 -362.060852 3.946928 21.260920 -108.664932 499.952881
5 -153.359680 -308.780914 -362.060852 4.106267 25.371096 -107.799622 499.952881
6 -153.359680 -308.780914 -362.060852 4.298389 27.642591 -106.842804 499.952881
[planeLockWeightCenter]
4 -0.000062 0.000238 0.000000 -0.011814 -0.004373 -0.000015 0.000246
5 -0.000062 0.000238 0.000000 -0.011814 -0.004373 -0.000015 0.000246
6 -0.000062 0.000238 0.000000 -0.011814 -0.004373 -0.000015 0.000246
[Rear_Toe1_02]
4 379.707825 0.194073 0.000477 -0.002652 -32.319870 -0.002652 379.707855
5 379.707825 0.194073 0.000477 -0.002642 -33.134281 -0.002642 379.707855
6 379.707825 0.194073 0.000477 -0.002638 -33.459484 -0.002638 379.707855
[Rear_Toe1_03]
4 500.129700 0.165701 0.000119 -179.982361 85.854095 -179.985870 500.129761
5 500.129700 0.165701 0.000119 -0.013936 85.800072 -0.017435 500.129761
6 500.129700 0.165701 0.000119 0.014092 80.445824 0.014092 500.129761
[Rear_Toe2_02]
4 340.494507 0.000238 -0.000954 0.001237 -53.034592 0.001237 340.494507
5 340.494507 0.000238 -0.000954 0.001236 -53.311115 0.001236 340.494507
6 340.494507 0.000238 -0.000954 0.001239 -52.521145 0.001239 340.494507
[Rear_Toe2_03]
4 433.103577 0.000000 0.000238 0.003256 47.747017 0.003256 433.103546
5 433.103577 0.000000 0.000238 0.003279 48.060894 0.003279 433.103546
6 433.103577 0.000000 0.000238 0.003213 47.158161 0.003213 433.103546
[Rear_Toe3_02]
4 340.494141 -0.000358 -0.000477 -0.002447 -53.311115 -0.002447 340.494171
5 340.494141 -0.000358 -0.000477 -0.002420 -57.382435 -0.002420 340.494171
6 340.494141 -0.000358 -0.000477 -0.002405 -60.043777 -0.002405 340.494171
[Rear_Toe3_03]
4 433.103577 0.001431 -0.000238 0.000266 48.066311 -0.003478 433.103546
5 433.103577 0.001431 -0.000238 0.000039 52.878063 -0.003650 433.103546
6 433.103577 0.001431 -0.000238 -0.000148 56.166283 -0.003803 433.103546
[Back_Bone]
4 1312.175781 -701.934692 0.000954 -17.890148 3.590086 -51.663815 1488.125488
5 1312.175781 -701.934692 0.000954 -16.332558 4.236248 -50.048199 1488.125488
6 1312.175781 -701.934692 0.000954 -12.429081 4.715657 -48.987270 1488.125488
[Head]
4 1406.159424 809.709290 0.001431 0.813694 -1.386632 -19.997952 1622.625488
5 1406.159424 809.709290 0.001431 0.861675 -1.362291 -22.045803 1622.625488
6 1406.159424 809.709290 0.001431 0.889207 -1.340003 -23.312134 1622.625488
[Motor_Bone]
4 1158.364380 -417.834747 0.000477 -0.495990 21.260622 -71.407448 1231.419434
5 1158.364380 -417.834747 0.000477 -0.638992 28.673592 -55.873993 1231.419434
6 1158.364380 -417.834747 0.000477 1.735761 28.655312 -51.736073 1231.419434
[Ping_Mechanism]
4 1264.191895 -327.053741 -11.914519 0.000103 -0.000053 82.120995 1305.866455
5 1292.572021 -124.486092 -12.288971 0.000103 -0.000053 82.120995 1298.610840
6 1310.063477 17.936401 -9.305725 0.000103 -0.000053 82.120995 1310.219360
[BN_LookIK]
4 193.241119 1380.371704 -0.002861 0.000000 89.965736 -31.038179 1393.832153
5 193.241119 1380.371704 -0.002861 0.000000 89.965736 -31.038179 1393.832153
6 193.241119 1380.371704 -0.002861 0.000000 89.965736 -31.038179 1393.832153
[bottomMouth]
4 -435.092926 615.759399 -0.000954 -0.000022 0.000016 73.527184 753.966492
5 -435.092926 615.759399 -0.000954 -0.000022 0.000016 73.527184 753.966492
6 -435.092926 615.759399 -0.000954 -0.000022 0.000016 73.527184 753.966492
[L_Mouth01]
4 554.440979 7.658243 838.222046 150.204178 23.759130 109.605339 1005.027161
5 554.440979 7.658243 838.222046 150.204178 23.759130 109.605339 1005.027161
6 554.440979 7.658243 838.222046 150.204178 23.759130 109.605339 1005.027161
[L_mouthFront]
4 551.629089 934.514771 339.150421 0.000081 2.804060 79.119301 1136.941284
5 551.629089 934.514771 339.150421 0.000081 2.804060 79.119301 1136.941284
6 551.629089 934.514771 339.150421 0.000081 2.804060 79.119301 1136.941284
[mouthGun]
4 55.332661 1627.420898 0.000000 0.000023 0.000009 -11.038128 1628.361328
5 55.332661 1627.420898 0.000000 0.000023 0.000009 -11.038128 1628.361328
6 55.332661 1627.420898 0.000000 0.000023 0.000009 -11.038128 1628.361328
[R_Mouth01]
4 554.442383 7.659197 -838.223938 29.795891 -23.759109 109.605331 1005.029541
5 554.442383 7.659197 -838.223938 29.795891 -23.759109 109.605331 1005.029541
6 554.442383 7.659197 -838.223938 29.795891 -23.759109 109.605331 1005.029541
[R_mouthFront]
4 551.629089 934.514282 -339.151367 0.000029 -2.803930 79.119133 1136.941162
5 551.629089 934.514282 -339.151367 0.000029 -2.803930 79.119133 1136.941162
6 551.629089 934.514282 -339.151367 0.000029 -2.803930 79.119133 1136.941162
[TopMouth]
4 461.269867 -56.106091 -0.008583 -0.000059 -0.000268 92.025169 464.669525
5 461.269867 -56.106091 -0.008583 -0.000059 -0.000268 92.025169 464.669525
6 461.269867 -56.106091 -0.008583 -0.000059 -0.000268 92.025169 464.669525
[weapon_bone]
4 -987.239868 1448.372803 0.001431 0.000000 89.965736 -31.038221 1752.833740
5 -987.239868 1448.372803 0.001431 0.000000 89.965736 -31.038221 1752.833740
6 -987.239868 1448.372803 0.001431 0.000000 89.965736 -31.038221 1752.833740
